<svg xmlns="http://www.w3.org/2000/svg" viewBox="0 0 48 48" role="img" aria-labelledby="title desc">
  <title id="title">Digital Shop</title>
  <desc id="desc">A shopping bag with a pixel-styled letter D</desc>
  <rect width="48" height="48" rx="6" fill="#f05a28"/>
  <path d="M15 17v-2c0-5 3.7-9 9-9s9 4 9 9v2" fill="none" stroke="#fff" stroke-width="3.5" stroke-linecap="round"/>
  <path d="M10 16h28v25H10z" fill="#fff"/>
  <path d="M17 22h7.5c5.2 0 8.5 2.8 8.5 7s-3.3 7-8.5 7H17V22zm5 4v6h2.6c2.1 0 3.4-1.1 3.4-3s-1.3-3-3.4-3H22z" fill="#153b8f"/>
  <path d="M34 22h4v4h-4zm0 10h4v4h-4z" fill="#ffb000"/>
</svg>
