<svg width="720" height="720" viewBox="0 0 720 720" fill="none" xmlns="http://www.w3.org/2000/svg">
  <rect width="720" height="720" fill="white"/>
  <rect x="52" y="52" width="176" height="176" fill="#111827"/>
  <rect x="92" y="92" width="96" height="96" fill="white"/>
  <rect x="124" y="124" width="32" height="32" fill="#111827"/>
  <rect x="492" y="52" width="176" height="176" fill="#111827"/>
  <rect x="532" y="92" width="96" height="96" fill="white"/>
  <rect x="564" y="124" width="32" height="32" fill="#111827"/>
  <rect x="52" y="492" width="176" height="176" fill="#111827"/>
  <rect x="92" y="532" width="96" height="96" fill="white"/>
  <rect x="124" y="564" width="32" height="32" fill="#111827"/>
  <path d="M292 72h48v48h-48V72Zm72 0h48v96h-48V72Zm-72 120h96v48h-96v-48Zm144 48h48v48h-48v-48Zm-192 48h48v96h-48v-96Zm96 0h48v48h-48v-48Zm96 48h96v48h-96v-48Zm144-48h48v96h-48v-96Zm-288 144h48v48h-48v-48Zm96 0h96v48h-96v-48Zm144 0h48v96h-48v-96Zm96 0h48v48h-48v-48ZM292 552h48v96h-48v-96Zm72 0h48v48h-48v-48Zm96 0h48v96h-48v-96Zm96-24h96v48h-96v-48Zm-24 96h48v48h-48v-48Zm96 0h40v40h-40v-40Z" fill="#111827"/>
  <rect x="260" y="260" width="200" height="200" fill="#0ea5e9"/>
  <text x="360" y="352" text-anchor="middle" font-family="Arial, sans-serif" font-size="40" font-weight="700" fill="white">GCash</text>
  <text x="360" y="398" text-anchor="middle" font-family="Arial, sans-serif" font-size="24" font-weight="700" fill="white">Static QR</text>
</svg>
